<?xml version="1.0" encoding="UTF-8" standalone="no"?>
<!-- Created with Inkscape (http://www.inkscape.org/) -->

<svg
   xmlns:dc="http://purl.org/dc/elements/1.1/"
   xmlns:cc="http://creativecommons.org/ns#"
   xmlns:rdf="http://www.w3.org/1999/02/22-rdf-syntax-ns#"
   xmlns:svg="http://www.w3.org/2000/svg"
   xmlns="http://www.w3.org/2000/svg"
   xmlns:sodipodi="http://sodipodi.sourceforge.net/DTD/sodipodi-0.dtd"
   xmlns:inkscape="http://www.inkscape.org/namespaces/inkscape"
   width="512"
   height="512"
   id="svg2"
   version="1.1"
   inkscape:version="0.48.4 r9939"
   sodipodi:docname="linkedin.svg">
  <defs
     id="defs4" />
  <sodipodi:namedview
     id="base"
     pagecolor="#ffffff"
     bordercolor="#666666"
     borderopacity="1.0"
     inkscape:pageopacity="0.0"
     inkscape:pageshadow="2"
     inkscape:zoom="0.7"
     inkscape:cx="512.66246"
     inkscape:cy="260.33456"
     inkscape:document-units="px"
     inkscape:current-layer="layer1"
     showgrid="false"
     inkscape:window-width="824"
     inkscape:window-height="1012"
     inkscape:window-x="0"
     inkscape:window-y="0"
     inkscape:window-maximized="0" />
  <metadata
     id="metadata7">
    <rdf:RDF>
      <cc:Work
         rdf:about="">
        <dc:format>image/svg+xml</dc:format>
        <dc:type
           rdf:resource="http://purl.org/dc/dcmitype/StillImage" />
        <dc:title></dc:title>
      </cc:Work>
    </rdf:RDF>
  </metadata>
  <g
     inkscape:label="Layer 1"
     inkscape:groupmode="layer"
     id="layer1"
     transform="translate(0,-540.36218)">
    <path
       sodipodi:type="arc"
       style="fill:#000000;fill-opacity:1;stroke:none"
       id="path3783"
       sodipodi:cx="204.55589"
       sodipodi:cy="215.95587"
       sodipodi:rx="83.337585"
       sodipodi:ry="63.63961"
       d="m 287.89348,215.95587 a 83.337585,63.63961 0 1 1 -166.67517,0 83.337585,63.63961 0 1 1 166.67517,0 z"
       transform="matrix(2.9998469,0,0,3.9283709,-357.63637,-51.992581)" />
    <g
       id="g3003"
       transform="matrix(1.5197115,0,0,1.5198344,84.049103,579.25347)">
      <g
         inkscape:label="Layer 1"
         transform="translate(-373.642,-318.344)"
         id="layer1-4">
	
		<path
   d="M 558.43955,358.55148 H 415.13944 c -17.12168,0 -31.00144,13.87975 -31.00144,31.00144 v 143.28351 c 0,17.12169 13.87976,31.00057 31.00144,31.00057 h 143.29924 c 17.12168,0 31.00144,-13.87976 31.00144,-31.00057 V 389.55379 c 8.7e-4,-17.12168 -13.87976,-31.00231 -31.00057,-31.00231 z"
   inkscape:export-ydpi="7.7063322"
   inkscape:export-xdpi="7.7063322"
   inkscape:export-filename="C:\Documents and Settings\Molumen\Desktop\path3511111.png"
   id="rect1942"
   inkscape:connector-curvature="0"
   style="fill:#ffffff;fill-opacity:1;stroke:none" />

	
		<linearGradient
   gradientTransform="matrix(-0.5915,0,0,-0.5915,-34.5417,412.5453)"
   y2="49.2029"
   x2="-860.56921"
   y1="199.8918"
   x1="-808.87268"
   gradientUnits="userSpaceOnUse"
   id="path1950_1_">
		<stop
   id="stop2990"
   style="stop-color:#FFFFFF"
   offset="0" />

		<stop
   id="stop2992"
   style="stop-color:#FFFFFF;stop-opacity:0"
   offset="1" />

	</linearGradient>

	
		
</g>
      <g
         inkscape:label="Layer 1"
         transform="translate(-200.55198,-393.96227)"
         id="layer1_1_">
	<g
   transform="matrix(1.018827,0,0,-1.018827,170.5996,498.03288)"
   id="g3019">
		<path
   d="m 100.67303,-106.45523 v 91.122601 H 70.387939 V -106.45523 H 100.67303 z M 85.536163,-2.8908173 c 10.553962,0 17.133047,6.9975362 17.133047,15.7431463 -0.19569,8.939549 -6.579085,15.743146 -16.934739,15.743146 -10.364391,0 -17.135665,-6.803597 -17.135665,-15.743146 0,-8.7456101 6.570346,-15.7431463 16.737303,-15.7431463 h 0.200054 l 0,0 z"
   inkscape:connector-curvature="0"
   id="path28_1_"
   style="fill:#000000" />

		<path
   d="m 117.43392,-106.45523 h 30.29033 v 50.886331 c 0,2.724758 0.19744,5.446896 0.99853,7.392403 2.184,5.444276 7.17138,11.078122 15.5361,11.078122 10.96106,0 15.34217,-8.358605 15.34217,-20.606477 v -48.750379 h 30.28421 v 52.250021 c 0,27.989271 -14.93856,41.012027 -34.86799,41.012027 -16.3372,0 -23.51295,-9.129121 -27.49744,-15.350027 h 0.20442 v 13.21058 h -30.29033 c 0.40186,-8.54905 0,-91.122601 0,-91.122601 l 0,0 z"
   inkscape:connector-curvature="0"
   id="path30_1_"
   style="fill:#000000" />

	</g>

</g>
    </g>
  </g>
</svg>
